<svg id="visual" viewBox="0 0 960 540" width="960" height="540" xmlns="http://www.w3.org/2000/svg" xmlns:xlink="http://www.w3.org/1999/xlink" version="1.1"><path d="M0 55L14.5 51.3C29 47.7 58 40.3 87.2 43C116.3 45.7 145.7 58.3 174.8 67.3C204 76.3 233 81.7 262 85.3C291 89 320 91 349 82C378 73 407 53 436.2 43C465.3 33 494.7 33 523.8 35.8C553 38.7 582 44.3 611 44.3C640 44.3 669 38.7 698 37.7C727 36.7 756 40.3 785.2 51.2C814.3 62 843.7 80 872.8 80C902 80 931 62 945.5 53L960 44L960 0L945.5 0C931 0 902 0 872.8 0C843.7 0 814.3 0 785.2 0C756 0 727 0 698 0C669 0 640 0 611 0C582 0 553 0 523.8 0C494.7 0 465.3 0 436.2 0C407 0 378 0 349 0C320 0 291 0 262 0C233 0 204 0 174.8 0C145.7 0 116.3 0 87.2 0C58 0 29 0 14.5 0L0 0Z" fill="#7cb772"></path><path d="M0 98L14.5 98C29 98 58 98 87.2 101.7C116.3 105.3 145.7 112.7 174.8 117.2C204 121.7 233 123.3 262 126C291 128.7 320 132.3 349 123.3C378 114.3 407 92.7 436.2 84.5C465.3 76.3 494.7 81.7 523.8 88C553 94.3 582 101.7 611 100.8C640 100 669 91 698 87.3C727 83.7 756 85.3 785.2 102.5C814.3 119.7 843.7 152.3 872.8 153.3C902 154.3 931 123.7 945.5 108.3L960 93L960 42L945.5 51C931 60 902 78 872.8 78C843.7 78 814.3 60 785.2 49.2C756 38.3 727 34.7 698 35.7C669 36.7 640 42.3 611 42.3C582 42.3 553 36.7 523.8 33.8C494.7 31 465.3 31 436.2 41C407 51 378 71 349 80C320 89 291 87 262 83.3C233 79.7 204 74.3 174.8 65.3C145.7 56.3 116.3 43.7 87.2 41C58 38.3 29 45.7 14.5 49.3L0 53Z" fill="#89c37f"></path><path d="M0 282L14.5 284.7C29 287.3 58 292.7 87.2 283.7C116.3 274.7 145.7 251.3 174.8 245C204 238.7 233 249.3 262 261C291 272.7 320 285.3 349 283.5C378 281.7 407 265.3 436.2 244.7C465.3 224 494.7 199 523.8 194.5C553 190 582 206 611 206.8C640 207.7 669 193.3 698 203.3C727 213.3 756 247.7 785.2 269.3C814.3 291 843.7 300 872.8 292.8C902 285.7 931 262.3 945.5 250.7L960 239L960 91L945.5 106.3C931 121.7 902 152.3 872.8 151.3C843.7 150.3 814.3 117.7 785.2 100.5C756 83.3 727 81.7 698 85.3C669 89 640 98 611 98.8C582 99.7 553 92.3 523.8 86C494.7 79.7 465.3 74.3 436.2 82.5C407 90.7 378 112.3 349 121.3C320 130.3 291 126.7 262 124C233 121.3 204 119.7 174.8 115.2C145.7 110.7 116.3 103.3 87.2 99.7C58 96 29 96 14.5 96L0 96Z" fill="#96ce8c"></path><path d="M0 449L14.5 443.7C29 438.3 58 427.7 87.2 421.3C116.3 415 145.7 413 174.8 406.7C204 400.3 233 389.7 262 391.5C291 393.3 320 407.7 349 407.7C378 407.7 407 393.3 436.2 382.5C465.3 371.7 494.7 364.3 523.8 363.5C553 362.7 582 368.3 611 366.7C640 365 669 356 698 357.7C727 359.3 756 371.7 785.2 381.5C814.3 391.3 843.7 398.7 872.8 403.2C902 407.7 931 409.3 945.5 410.2L960 411L960 237L945.5 248.7C931 260.3 902 283.7 872.8 290.8C843.7 298 814.3 289 785.2 267.3C756 245.7 727 211.3 698 201.3C669 191.3 640 205.7 611 204.8C582 204 553 188 523.8 192.5C494.7 197 465.3 222 436.2 242.7C407 263.3 378 279.7 349 281.5C320 283.3 291 270.7 262 259C233 247.3 204 236.7 174.8 243C145.7 249.3 116.3 272.7 87.2 281.7C58 290.7 29 285.3 14.5 282.7L0 280Z" fill="#a2d799"></path><path d="M0 509L14.5 501.7C29 494.3 58 479.7 87.2 480.5C116.3 481.3 145.7 497.7 174.8 500.5C204 503.3 233 492.7 262 487.3C291 482 320 482 349 479.2C378 476.3 407 470.7 436.2 471.5C465.3 472.3 494.7 479.7 523.8 482.5C553 485.3 582 483.7 611 481C640 478.3 669 474.7 698 480C727 485.3 756 499.7 785.2 505C814.3 510.3 843.7 506.7 872.8 502.2C902 497.7 931 492.3 945.5 489.7L960 487L960 409L945.5 408.2C931 407.3 902 405.7 872.8 401.2C843.7 396.7 814.3 389.3 785.2 379.5C756 369.7 727 357.3 698 355.7C669 354 640 363 611 364.7C582 366.3 553 360.7 523.8 361.5C494.7 362.3 465.3 369.7 436.2 380.5C407 391.3 378 405.7 349 405.7C320 405.7 291 391.3 262 389.5C233 387.7 204 398.3 174.8 404.7C145.7 411 116.3 413 87.2 419.3C58 425.7 29 436.3 14.5 441.7L0 447Z" fill="#addca7"></path><path d="M0 541L14.5 541C29 541 58 541 87.2 541C116.3 541 145.7 541 174.8 541C204 541 233 541 262 541C291 541 320 541 349 541C378 541 407 541 436.2 541C465.3 541 494.7 541 523.8 541C553 541 582 541 611 541C640 541 669 541 698 541C727 541 756 541 785.2 541C814.3 541 843.7 541 872.8 541C902 541 931 541 945.5 541L960 541L960 485L945.5 487.7C931 490.3 902 495.7 872.8 500.2C843.7 504.7 814.3 508.3 785.2 503C756 497.7 727 483.3 698 478C669 472.7 640 476.3 611 479C582 481.7 553 483.3 523.8 480.5C494.7 477.7 465.3 470.3 436.2 469.5C407 468.7 378 474.3 349 477.2C320 480 291 480 262 485.3C233 490.7 204 501.3 174.8 498.5C145.7 495.7 116.3 479.3 87.2 478.5C58 477.7 29 492.3 14.5 499.7L0 507Z" fill="#b9e2b5"></path></svg>