<svg id="visual" viewBox="0 0 960 540" width="960" height="540" xmlns="http://www.w3.org/2000/svg" xmlns:xlink="http://www.w3.org/1999/xlink" version="1.1"><path d="M0 163L87 163L87 244L175 244L175 136L262 136L262 260L349 260L349 93L436 93L436 195L524 195L524 136L611 136L611 136L698 136L698 163L785 163L785 179L873 179L873 147L960 147L960 206L960 0L960 0L873 0L873 0L785 0L785 0L698 0L698 0L611 0L611 0L524 0L524 0L436 0L436 0L349 0L349 0L262 0L262 0L175 0L175 0L87 0L87 0L0 0Z" fill="#b0235f"></path><path d="M0 233L87 233L87 309L175 309L175 201L262 201L262 303L349 303L349 168L436 168L436 244L524 244L524 217L611 217L611 228L698 228L698 206L785 206L785 244L873 244L873 190L960 190L960 260L960 204L960 145L873 145L873 177L785 177L785 161L698 161L698 134L611 134L611 134L524 134L524 193L436 193L436 91L349 91L349 258L262 258L262 134L175 134L175 242L87 242L87 161L0 161Z" fill="#c53762"></path><path d="M0 363L87 363L87 417L175 417L175 390L262 390L262 401L349 401L349 357L436 357L436 320L524 320L524 374L611 374L611 401L698 401L698 330L785 330L785 384L873 384L873 379L960 379L960 374L960 258L960 188L873 188L873 242L785 242L785 204L698 204L698 226L611 226L611 215L524 215L524 242L436 242L436 166L349 166L349 301L262 301L262 199L175 199L175 307L87 307L87 231L0 231Z" fill="#d84a64"></path><path d="M0 411L87 411L87 487L175 487L175 482L262 482L262 487L349 487L349 444L436 444L436 411L524 411L524 417L611 417L611 465L698 465L698 417L785 417L785 428L873 428L873 449L960 449L960 460L960 372L960 377L873 377L873 382L785 382L785 328L698 328L698 399L611 399L611 372L524 372L524 318L436 318L436 355L349 355L349 399L262 399L262 388L175 388L175 415L87 415L87 361L0 361Z" fill="#ea5e66"></path><path d="M0 541L87 541L87 541L175 541L175 541L262 541L262 541L349 541L349 541L436 541L436 541L524 541L524 541L611 541L611 541L698 541L698 541L785 541L785 541L873 541L873 541L960 541L960 541L960 458L960 447L873 447L873 426L785 426L785 415L698 415L698 463L611 463L611 415L524 415L524 409L436 409L436 442L349 442L349 485L262 485L262 480L175 480L175 485L87 485L87 409L0 409Z" fill="#fa7268"></path></svg>